<svg width="1350" height="645" xmlns="http://www.w3.org/2000/svg" font-family="'Segoe UI',Arial,sans-serif">
  <rect width="1350" height="645" fill="white"/>
  <defs>
    <marker id="oa" viewBox="0 0 10 10" refX="9" refY="5" markerWidth="7" markerHeight="7" orient="auto">
      <path d="M1 1.5L9 5L1 8.5" fill="none" stroke="#444" stroke-width="1.4" stroke-linecap="round" stroke-linejoin="round"/>
    </marker>
    <marker id="inh" viewBox="0 0 12 12" refX="11" refY="6" markerWidth="11" markerHeight="11" orient="auto">
      <path d="M1 1L11 6L1 11Z" fill="white" stroke="#444" stroke-width="1.2"/>
    </marker>
    <marker id="df" viewBox="0 0 14 10" refX="1" refY="5" markerWidth="13" markerHeight="10" orient="auto">
      <path d="M1 5L7 1L13 5L7 9Z" fill="#444" stroke="#444" stroke-width="0.8"/>
    </marker>
    <marker id="do" viewBox="0 0 14 10" refX="1" refY="5" markerWidth="13" markerHeight="10" orient="auto">
      <path d="M1 5L7 1L13 5L7 9Z" fill="white" stroke="#444" stroke-width="1.2"/>
    </marker>
  </defs>

  <!-- Commentaire -->
  <rect x="20" y="15" width="205" height="28" fill="#3A6EA5"/>
  <text x="122" y="33" text-anchor="middle" fill="white" font-size="12" font-weight="bold">Commentaire</text>
  <rect x="20" y="43" width="205" height="1" fill="#2A5A8F"/>
  <rect x="20" y="44" width="205" height="71" fill="white"/>
  <text x="28" y="62" fill="#1a1a1a" font-size="11">+ Id : Long</text>
  <text x="28" y="82" fill="#1a1a1a" font-size="11">+ Texte : String</text>
  <text x="28" y="102" fill="#1a1a1a" font-size="11">+ createdAt : Date</text>
  <rect x="20" y="15" width="205" height="100" fill="none" stroke="#3A6EA5" stroke-width="1.2"/>

  <!-- Ordre -->
  <rect x="15" y="220" width="235" height="28" fill="#3A6EA5"/>
  <text x="132" y="238" text-anchor="middle" fill="white" font-size="12" font-weight="bold">Ordre</text>
  <rect x="15" y="248" width="235" height="1" fill="#2A5A8F"/>
  <rect x="15" y="249" width="235" height="311" fill="white"/>
  <text x="23" y="267" fill="#1a1a1a" font-size="11">+ Code : Long</text>
  <text x="23" y="287" fill="#1a1a1a" font-size="11">+ OrdreNumber : String</text>
  <text x="23" y="307" fill="#1a1a1a" font-size="11">+ NomClient : String</text>
  <text x="23" y="327" fill="#1a1a1a" font-size="11">+ chargementDate : Date</text>
  <text x="23" y="347" fill="#1a1a1a" font-size="11">+ chargementNom : String</text>
  <text x="23" y="367" fill="#1a1a1a" font-size="11">+ chargementVille : String</text>
  <text x="23" y="387" fill="#1a1a1a" font-size="11">+ LivraisonDate : Date</text>
  <text x="23" y="407" fill="#1a1a1a" font-size="11">+ LivraisonNom : String</text>
  <text x="23" y="427" fill="#1a1a1a" font-size="11">+ LivraisonVille : String</text>
  <text x="23" y="447" fill="#1a1a1a" font-size="11">+ Designation : Long</text>
  <text x="23" y="467" fill="#1a1a1a" font-size="11">+ statut : Statut</text>
  <text x="23" y="487" fill="#1a1a1a" font-size="11">+ Poids : Double</text>
  <text x="23" y="507" fill="#1a1a1a" font-size="11">+ Volume : Double</text>
  <text x="23" y="527" fill="#1a1a1a" font-size="11">+ Volume : Double</text>
  <text x="23" y="547" fill="#1a1a1a" font-size="11">+ nombre_palettes : Int</text>
  <rect x="15" y="220" width="235" height="340" fill="none" stroke="#3A6EA5" stroke-width="1.2"/>

  <!-- Article -->
  <rect x="340" y="190" width="205" height="28" fill="#3A6EA5"/>
  <text x="442" y="208" text-anchor="middle" fill="white" font-size="12" font-weight="bold">Article</text>
  <rect x="340" y="218" width="205" height="1" fill="#2A5A8F"/>
  <rect x="340" y="219" width="205" height="71" fill="white"/>
  <text x="348" y="237" fill="#1a1a1a" font-size="11">+ Id : Long</text>
  <text x="348" y="257" fill="#1a1a1a" font-size="11">+ CodeArticle : String</text>
  <text x="348" y="277" fill="#1a1a1a" font-size="11">+ Label : String</text>
  <rect x="340" y="190" width="205" height="100" fill="none" stroke="#3A6EA5" stroke-width="1.2"/>

  <!-- Trank -->
  <rect x="335" y="355" width="225" height="28" fill="#3A6EA5"/>
  <text x="447" y="373" text-anchor="middle" fill="white" font-size="12" font-weight="bold">Trank</text>
  <rect x="335" y="383" width="225" height="1" fill="#2A5A8F"/>
  <rect x="335" y="384" width="225" height="171" fill="white"/>
  <text x="343" y="402" fill="#1a1a1a" font-size="11">+ Id : Long</text>
  <text x="343" y="422" fill="#1a1a1a" font-size="11">+ chargement : Boolean</text>
  <text x="343" y="442" fill="#1a1a1a" font-size="11">+ Depart : Boolean</text>
  <text x="343" y="462" fill="#1a1a1a" font-size="11">+ Livraison : Boolean</text>
  <text x="343" y="482" fill="#1a1a1a" font-size="11">+ delivery_dated : Date</text>
  <text x="343" y="502" fill="#1a1a1a" font-size="11">+ departure_date_time : Date</text>
  <text x="343" y="522" fill="#1a1a1a" font-size="11">+ loading_dated : Date</text>
  <text x="343" y="542" fill="#1a1a1a" font-size="11">+ loading_datef : Date</text>
  <rect x="335" y="355" width="225" height="200" fill="none" stroke="#3A6EA5" stroke-width="1.2"/>

  <!-- Notification -->
  <rect x="570" y="15" width="205" height="28" fill="#3A6EA5"/>
  <text x="672" y="33" text-anchor="middle" fill="white" font-size="12" font-weight="bold">Notification</text>
  <rect x="570" y="43" width="205" height="1" fill="#2A5A8F"/>
  <rect x="570" y="44" width="205" height="111" fill="white"/>
  <text x="578" y="62" fill="#1a1a1a" font-size="11">+ Id : Long</text>
  <text x="578" y="82" fill="#1a1a1a" font-size="11">+ Type : String</text>
  <text x="578" y="102" fill="#1a1a1a" font-size="11">+ Message : String</text>
  <text x="578" y="122" fill="#1a1a1a" font-size="11">+ createdAt : Date</text>
  <text x="578" y="142" fill="#1a1a1a" font-size="11">+ isRead : Boolean</text>
  <rect x="570" y="15" width="205" height="140" fill="none" stroke="#3A6EA5" stroke-width="1.2"/>

  <!-- Admin -->
  <rect x="565" y="305" width="215" height="28" fill="#3A6EA5"/>
  <text x="672" y="323" text-anchor="middle" fill="white" font-size="12" font-weight="bold">Admin</text>
  <rect x="565" y="333" width="215" height="1" fill="#2A5A8F"/>
  <rect x="565" y="334" width="215" height="91" fill="white"/>
  <text x="573" y="352" fill="#1a1a1a" font-size="11">+ gererPermissions()</text>
  <text x="573" y="372" fill="#1a1a1a" font-size="11">+ ApprouverInscriptions()</text>
  <text x="573" y="392" fill="#1a1a1a" font-size="11">+ gererClient()</text>
  <text x="573" y="412" fill="#1a1a1a" font-size="11">+ gererOrdres()</text>
  <rect x="565" y="305" width="215" height="120" fill="none" stroke="#3A6EA5" stroke-width="1.2"/>

  <!-- User -->
  <rect x="820" y="45" width="255" height="28" fill="#3A6EA5"/>
  <text x="947" y="63" text-anchor="middle" fill="white" font-size="12" font-weight="bold">User</text>
  <rect x="820" y="73" width="255" height="1" fill="#2A5A8F"/>
  <rect x="820" y="74" width="255" height="176" fill="white"/>
  <text x="828" y="92" fill="#1a1a1a" font-size="11">+ id : int</text>
  <text x="828" y="112" fill="#1a1a1a" font-size="11">+ FirstName : String</text>
  <text x="828" y="132" fill="#1a1a1a" font-size="11">+ LastName : String</text>
  <text x="828" y="152" fill="#1a1a1a" font-size="11">+ Email : String</text>
  <text x="828" y="172" fill="#1a1a1a" font-size="11">+ Password : String</text>
  <text x="828" y="192" fill="#1a1a1a" font-size="11">+ Status : Status</text>
  <text x="828" y="212" fill="#1a1a1a" font-size="11">+ RegistrationApproved : Boolean</text>
  <text x="828" y="232" fill="#1a1a1a" font-size="11">+ LinkedClientId : Long</text>
  <rect x="820" y="45" width="255" height="205" fill="none" stroke="#3A6EA5" stroke-width="1.2"/>

  <!-- RolePermission -->
  <rect x="815" y="385" width="235" height="28" fill="#3A6EA5"/>
  <text x="932" y="403" text-anchor="middle" fill="white" font-size="12" font-weight="bold">RolePermission</text>
  <rect x="815" y="413" width="235" height="1" fill="#2A5A8F"/>
  <rect x="815" y="414" width="235" height="91" fill="white"/>
  <text x="823" y="432" fill="#1a1a1a" font-size="11">+ id : Long</text>
  <text x="823" y="452" fill="#1a1a1a" font-size="11">+ role : Role</text>
  <text x="823" y="472" fill="#1a1a1a" font-size="11">+ FeatureKey : String</text>
  <text x="823" y="492" fill="#1a1a1a" font-size="11">+ enabled : Boolean</text>
  <rect x="815" y="385" width="235" height="120" fill="none" stroke="#3A6EA5" stroke-width="1.2"/>

  <!-- User_Lumiere -->
  <rect x="1105" y="15" width="215" height="28" fill="#3A6EA5"/>
  <text x="1212" y="33" text-anchor="middle" fill="white" font-size="12" font-weight="bold">User_Lumiere</text>
  <rect x="1105" y="43" width="215" height="1" fill="#2A5A8F"/>
  <rect x="1105" y="44" width="215" height="31" fill="white"/>
  <text x="1113" y="62" fill="#1a1a1a" font-size="11">+ gererOrdres()</text>
  <rect x="1105" y="15" width="215" height="60" fill="none" stroke="#3A6EA5" stroke-width="1.2"/>

  <!-- Commercial -->
  <rect x="1100" y="175" width="235" height="28" fill="#3A6EA5"/>
  <text x="1217" y="193" text-anchor="middle" fill="white" font-size="12" font-weight="bold">Commercial</text>
  <rect x="1100" y="203" width="235" height="1" fill="#2A5A8F"/>
  <rect x="1100" y="204" width="235" height="71" fill="white"/>
  <text x="1108" y="222" fill="#1a1a1a" font-size="11">+ gererClient()</text>
  <text x="1108" y="242" fill="#1a1a1a" font-size="11">+ gererOrdres()</text>
  <text x="1108" y="262" fill="#1a1a1a" font-size="11">+ ApprouverInscriptions()</text>
  <rect x="1100" y="175" width="235" height="100" fill="none" stroke="#3A6EA5" stroke-width="1.2"/>

  <!-- Client -->
  <rect x="1095" y="375" width="235" height="28" fill="#3A6EA5"/>
  <text x="1212" y="393" text-anchor="middle" fill="white" font-size="12" font-weight="bold">Client</text>
  <rect x="1095" y="403" width="235" height="1" fill="#2A5A8F"/>
  <rect x="1095" y="404" width="235" height="196" fill="white"/>
  <text x="1103" y="422" fill="#1a1a1a" font-size="11">+ Code : Long</text>
  <text x="1103" y="442" fill="#1a1a1a" font-size="11">+ CodeClient : String</text>
  <text x="1103" y="462" fill="#1a1a1a" font-size="11">+ Nom : String</text>
  <text x="1103" y="482" fill="#1a1a1a" font-size="11">+ Email : String</text>
  <text x="1103" y="502" fill="#1a1a1a" font-size="11">+ Telephone : String</text>
  <text x="1103" y="522" fill="#1a1a1a" font-size="11">+ Adresse : String</text>
  <text x="1103" y="542" fill="#1a1a1a" font-size="11">+ ProfileCompleted : Boolean</text>
  <text x="1103" y="562" fill="#1a1a1a" font-size="11">+ Ville : Long</text>
  <text x="1103" y="582" fill="#1a1a1a" font-size="11">+ Pays : Long</text>
  <rect x="1095" y="375" width="235" height="225" fill="none" stroke="#3A6EA5" stroke-width="1.2"/>

  <!-- ══════ RELATIONS ══════ -->

  <!-- 1. Ordre ◆── Commentaire (composition, 1 to *) -->
  <line x1="122" y1="220" x2="122" y2="115" stroke="#444" stroke-width="1.2" marker-start="url(#df)"/>
  <text x="128" y="215" fill="#666" font-size="11">1</text>
  <text x="128" y="122" fill="#666" font-size="11">*</text>

  <!-- 2. Ordre ◆── Article (Contient, 1 to 1) -->
  <line x1="250" y1="290" x2="340" y2="240" stroke="#444" stroke-width="1.2" marker-start="url(#df)"/>
  <text x="270" y="278" fill="#666" font-size="10" font-style="italic">Contient</text>
  <text x="253" y="288" fill="#666" font-size="11">1</text>
  <text x="333" y="243" fill="#666" font-size="11">1</text>

  <!-- 3. Ordre ── Trank (Est suivi via, 1 to 1) -->
  <line x1="250" y1="455" x2="335" y2="460" stroke="#444" stroke-width="1.2" marker-end="url(#oa)"/>
  <text x="253" y="449" fill="#666" font-size="10" font-style="italic">Est suivi via</text>
  <text x="253" y="469" fill="#666" font-size="11">1</text>
  <text x="329" y="457" fill="#666" font-size="11">1</text>

  <!-- 4. Client ── Ordre (Passer, * to 1) -->
  <path d="M1212 600 L1212 625 L132 625 L132 560" fill="none" stroke="#444" stroke-width="1.2" marker-end="url(#oa)"/>
  <text x="660" y="619" fill="#666" font-size="11" font-style="italic">Passer</text>
  <text x="1193" y="622" fill="#666" font-size="11">*</text>
  <text x="137" y="557" fill="#666" font-size="11">1</text>

  <!-- 5. User ── Notification (reçoit, 1 to *) -->
  <line x1="820" y1="128" x2="775" y2="90" stroke="#444" stroke-width="1.2" marker-end="url(#oa)"/>
  <text x="780" y="119" fill="#666" font-size="10" font-style="italic">reçoit</text>
  <text x="822" y="124" fill="#666" font-size="11">1</text>
  <text x="760" y="93" fill="#666" font-size="11">*</text>

  <!-- 6. Admin ──▷ User (Est un) -->
  <path d="M672 305 L672 275 L947 275 L947 250" fill="none" stroke="#444" stroke-width="1.2" marker-end="url(#inh)"/>
  <text x="785" y="270" fill="#666" font-size="11" font-style="italic">Est un</text>

  <!-- 7. User_Lumiere ──▷ User (Est un) -->
  <path d="M1105 45 L1085 45 L1085 130 L1075 130" fill="none" stroke="#444" stroke-width="1.2" marker-end="url(#inh)"/>
  <text x="1087" y="40" fill="#666" font-size="11" font-style="italic">Est un</text>

  <!-- 8. Commercial ──▷ User (Est un) -->
  <path d="M1100 220 L1082 220 L1082 195 L1075 195" fill="none" stroke="#444" stroke-width="1.2" marker-end="url(#inh)"/>
  <text x="1083" y="215" fill="#666" font-size="11" font-style="italic">Est un</text>

  <!-- 9. User ◆── RolePermission (Possède, 1 to *) -->
  <path d="M947 250 L947 315 L932 315 L932 385" fill="none" stroke="#444" stroke-width="1.2" marker-start="url(#df)"/>
  <text x="952" y="330" fill="#666" font-size="10" font-style="italic">Possède</text>
  <text x="950" y="254" fill="#666" font-size="11">1</text>
  <text x="935" y="383" fill="#666" font-size="11">*</text>

  <!-- 10. User ◇── Client (1 to *) -->
  <path d="M1075 195 L1083 195 L1083 358 L1095 358 L1095 440" fill="none" stroke="#444" stroke-width="1.2" marker-start="url(#do)" marker-end="url(#oa)"/>
  <text x="1060" y="192" fill="#666" font-size="11">1</text>
  <text x="1097" y="443" fill="#666" font-size="11">*</text>
</svg>
